<?xml version="1.0" encoding="UTF-8" standalone="no"?><!DOCTYPE svg PUBLIC "-//W3C//DTD SVG 1.1//EN" "http://www.w3.org/Graphics/SVG/1.1/DTD/svg11.dtd"><svg width="100%" height="100%" viewBox="0 0 361 361" version="1.1" xmlns="http://www.w3.org/2000/svg" xmlns:xlink="http://www.w3.org/1999/xlink" xml:space="preserve" xmlns:serif="http://www.serif.com/" style="fill-rule:evenodd;clip-rule:evenodd;stroke-linejoin:round;stroke-miterlimit:2;"><rect id="Artboard1" x="0" y="0" width="360.019" height="360.018" style="fill:none;"/><g id="Icon"><g id="Logo--Revised-" serif:id="Logo (Revised)"><path d="M118.547,290.218c-37.064,-20.474 -62.842,-58.915 -65.553,-103.542l-40.299,0l-0,-15.625l40.299,0c3.885,-63.945 55.13,-115.191 119.076,-119.075l-0,-40.3l15.625,0l-0,40.3c63.945,3.884 115.19,55.13 119.075,119.075l40.3,0l-0,15.625l-40.3,0c-2.711,44.627 -28.489,83.068 -65.553,103.542l11.472,-16.195c28.582,-21.91 47.026,-56.398 47.026,-95.159c-0,-66.138 -53.695,-119.833 -119.833,-119.833c-66.137,-0 -119.833,53.695 -119.833,119.833c0,38.761 18.444,73.249 47.026,95.159l11.472,16.195Zm109.48,18.623c48.247,-17.899 83.855,-61.912 89.618,-114.832l15.709,-0c-6.521,66.766 -55.695,121.108 -119.887,135.388l14.56,-20.556Zm-81.73,20.556c-64.191,-14.28 -113.366,-68.622 -119.887,-135.388l15.709,-0c5.763,52.92 41.371,96.933 89.618,114.832l14.56,20.556Zm-119.895,-165.596c7.098,-73.082 65.3,-131.296 138.376,-138.413l-0,15.708c-64.445,6.998 -115.688,58.254 -122.668,122.705l-15.708,-0Zm168.584,-138.413c73.076,7.117 131.278,65.331 138.376,138.413l-15.708,-0c-6.979,-64.451 -58.223,-115.707 -122.668,-122.705l0,-15.708Z"/><path d="M179.882,79.905c27.596,0 50,22.405 50,50c0,13.31 -5.212,25.412 -13.704,34.375c-7.993,8.437 -32.129,35.487 -32.129,62.5l-8.334,0c0,-26.947 -24.136,-54.063 -32.129,-62.5c-8.492,-8.963 -13.704,-21.065 -13.704,-34.375c0,-27.595 22.404,-50 50,-50Zm0,21.875c-15.523,0 -28.125,12.603 -28.125,28.125c0,15.523 12.602,28.125 28.125,28.125c15.523,0 28.125,-12.602 28.125,-28.125c0,-15.522 -12.602,-28.125 -28.125,-28.125Zm-0.028,127.141l-15.625,10.416l8.333,-3.125l3.125,9.375l-4.167,27.084l-20.805,-91.724l-2.083,-0l-8.333,8.333l-31.25,8.334l-12.5,41.723l83.333,117.652l83.333,-117.652l-12.5,-41.723l-31.25,-8.334l-8.333,-8.333l-2.083,-0l-20.862,91.724l-4.167,-27.084l3.125,-9.375l8.334,3.125l-15.625,-10.416Z"/></g></g></svg>