<svg width="100%" height="100%" viewBox="0 0 361 361" xmlns="http://www.w3.org/2000/svg" xmlns:xlink="http://www.w3.org/1999/xlink" xmlns:serif="http://www.serif.com/" style="fill-rule:evenodd;clip-rule:evenodd;stroke-linejoin:round;stroke-miterlimit:2;"><path id="Artboard1" d="M377.742,19.67l-37.393,358.071l-358.072,-37.393l37.393,-358.071l358.072,37.393Z" style="fill:none;"/><g id="Icon" opacity="0.3"><g id="Logo--Revised-" serif:id="Logo"><path d="M107.433,283.238c-34.737,-24.213 -56.383,-65.123 -54.444,-109.79l-40.082,-4.186l1.623,-15.541l40.081,4.186c10.506,-63.196 66.796,-108.842 130.8,-106.063l4.186,-40.082l15.54,1.623l-4.186,40.082c63.196,10.504 108.841,66.796 106.064,130.798l40.082,4.186l-1.623,15.541l-40.082,-4.186c-7.332,44.104 -36.963,79.66 -75.953,96.173l13.092,-14.916c30.703,-18.823 52.63,-51.208 56.655,-89.76c6.87,-65.78 -40.958,-124.762 -106.738,-131.631c-65.779,-6.869 -124.762,40.958 -131.631,106.739c-4.026,38.551 10.736,74.768 36.888,99.528l9.728,17.299Zm106.953,29.894c49.845,-12.792 89.832,-52.868 101.06,-104.903l15.625,1.631c-13.421,65.728 -67.973,114.669 -133.301,122.204l16.616,-18.932Zm-83.423,11.956c-62.36,-20.87 -105.625,-80.026 -105.176,-147.108l15.624,1.631c0.235,53.233 31.079,100.706 77.206,123.519l12.346,21.958Zm-102.047,-177.154c14.65,-71.949 78.584,-123.803 152.004,-123.292l-1.632,15.623c-64.823,0.267 -121.112,45.923 -134.749,109.301l-15.623,-1.632Zm182.049,-120.154c71.941,14.668 123.782,78.613 123.251,152.036l-15.623,-1.631c-0.247,-64.827 -45.89,-121.128 -109.26,-134.782l1.632,-15.623Z" style="fill:#808080;"/><path d="M190.28,80.433c27.447,2.866 47.402,27.477 44.536,54.923c-1.382,13.238 -7.823,24.733 -17.2,32.766c-8.826,7.561 -35.641,31.958 -38.447,58.825l-8.289,-0.866c2.799,-26.801 -18.39,-56.277 -25.463,-65.499c-7.515,-9.797 -11.442,-22.374 -10.06,-35.612c2.866,-27.446 27.476,-47.403 54.923,-44.537Zm-2.272,21.757c-15.439,-1.612 -29.282,9.614 -30.894,25.052c-1.612,15.439 9.612,29.281 25.052,30.894c15.439,1.612 29.281,-9.613 30.894,-25.052c1.612,-15.438 -9.613,-29.282 -25.052,-30.894Zm-13.233,126.45l-16.623,8.737l8.613,-2.243l2.134,9.649l-6.957,26.505l-11.166,-93.389l-2.072,-0.216l-9.153,7.422l-31.947,5.044l-16.766,40.199l70.663,125.671l95.102,-108.361l-8.099,-42.795l-30.215,-11.535l-7.423,-9.154l-2.071,-0.216l-30.276,89.061l-1.332,-27.37l4.082,-9l7.964,3.974l-14.458,-11.983Z" style="fill:#808080;"/></g></g></svg>